<?xml version="1.0" standalone="no"?>
<!DOCTYPE svg PUBLIC "-//W3C//DTD SVG 20010904//EN"
 "http://www.w3.org/TR/2001/REC-SVG-20010904/DTD/svg10.dtd">
<svg version="1.0" xmlns="http://www.w3.org/2000/svg"
 width="700.000000pt" height="700.000000pt" viewBox="0 0 700.000000 700.000000"
 preserveAspectRatio="xMidYMid meet">

<g transform="translate(0.000000,700.000000) scale(0.100000,-0.100000)"
fill="#000000" stroke="none">
<path d="M1390 4876 c-80 -28 -706 -330 -722 -348 -17 -19 -18 -59 -18 -527 0
-395 3 -511 13 -525 15 -20 708 -345 752 -353 25 -4 103 29 390 162 198 92
368 174 378 183 15 13 17 35 17 169 l0 153 -70 0 -69 0 -3 -112 -3 -112 -250
-116 c-137 -63 -262 -121 -277 -127 l-28 -13 0 399 0 398 262 123 c144 67 268
124 275 127 10 4 13 -16 13 -96 l0 -101 75 0 75 0 0 178 c0 158 -2 181 -17
194 -22 20 -663 326 -718 343 -33 10 -48 10 -75 1z m297 -273 c139 -65 252
-120 252 -123 0 -3 -115 -59 -255 -124 -252 -118 -256 -119 -287 -105 -390
179 -487 225 -487 229 0 7 492 238 510 239 8 1 128 -52 267 -116z m-597 -372
l255 -120 3 -401 c1 -220 -1 -400 -5 -399 -5 0 -127 57 -273 127 l-265 128 -3
398 c-2 376 -1 397 15 392 10 -3 133 -60 273 -125z"/>
<path d="M3454 4870 c-71 -25 -686 -319 -706 -337 -16 -14 -18 -37 -18 -195
l0 -178 75 0 75 0 0 101 c0 81 3 100 14 96 7 -3 131 -60 275 -128 l261 -122 0
-398 0 -399 -27 13 c-16 6 -140 64 -278 127 l-250 116 -3 112 -3 112 -74 0
-75 0 0 -148 c0 -104 4 -153 13 -166 15 -20 708 -345 752 -353 25 -4 103 29
390 162 198 92 368 174 378 183 15 13 17 35 17 169 l0 153 -75 0 -75 0 0 -113
0 -114 -267 -123 c-148 -68 -271 -125 -275 -127 -5 -2 -8 175 -8 395 l0 399
262 123 c144 67 268 124 275 127 10 4 13 -16 13 -96 l0 -101 80 0 80 0 0 174
c0 151 -2 176 -17 194 -17 18 -678 336 -734 352 -17 5 -43 2 -75 -10z m307
-267 c137 -64 249 -119 249 -123 0 -3 -115 -59 -255 -124 -236 -109 -258 -118
-283 -107 -138 62 -482 227 -482 231 0 8 491 239 508 240 8 0 126 -53 263
-117z"/>
<path d="M5524 4870 c-71 -25 -686 -319 -706 -337 -16 -14 -18 -37 -18 -195
l0 -178 70 0 70 0 0 101 c0 91 2 100 18 95 9 -3 132 -60 272 -125 l255 -120 3
-400 2 -400 -72 34 c-40 18 -163 76 -273 127 l-200 94 -3 112 -3 112 -74 0
-75 0 0 -148 c0 -104 4 -153 13 -166 15 -20 708 -345 752 -353 25 -4 103 29
390 162 198 92 368 174 377 183 16 16 18 57 18 536 1 411 -2 522 -12 531 -16
14 -692 334 -729 345 -17 5 -43 2 -75 -10z m307 -267 c137 -64 249 -119 249
-123 0 -4 -344 -169 -482 -231 -25 -11 -48 -2 -282 107 -141 65 -256 121 -256
124 0 8 491 239 508 240 8 0 126 -53 263 -117z m359 -641 l0 -399 -267 -123
c-148 -68 -271 -125 -275 -127 -5 -2 -8 175 -8 395 l0 399 268 126 c147 69
270 126 275 126 4 1 7 -178 7 -397z"/>
<path d="M1872 4017 c-28 -30 -28 -68 1 -95 l23 -22 567 0 c554 0 567 0 587
20 11 11 20 33 20 50 0 17 -9 39 -20 50 -20 20 -33 20 -588 20 l-569 0 -21
-23z"/>
<path d="M3942 4017 c-28 -30 -28 -68 1 -95 l23 -22 567 0 c554 0 567 0 587
20 11 11 20 33 20 50 0 17 -9 39 -20 50 -20 20 -33 20 -588 20 l-569 0 -21
-23z"/>
</g>
</svg>
